# xmcd
#
# Track frame offsets: 
#        150
#        23577
#        48388
#        83697
#        101354
#        137960
#        173992
#        229979
#        259576
#        302534
#
# Disc length: 4422 seconds
#
# Revision: 11
# Processed by: cddbd v1.5.2PL0 Copyright (c) Steve Scherf et al.
# Submitted via: ExactAudioCopy v0.95a5
#
DISCID=7611440a
DTITLE=John Mayall and the Blues Breakers and Friends - 70th Birthday Co
DTITLE=ncert (disc1)
DYEAR=2003
DGENRE=Blues
TTITLE0=Grits Aint Groceries
TTITLE1=Jacksboro Highway
TTITLE2=Southside Story
TTITLE3=Kids Got the Blues
TTITLE4=Dirty Water
TTITLE5=Somebody's Acting Like a Child (with Mick Taylor)
TTITLE6=Blues for the Lost Days (with Mick Taylor)
TTITLE7=Walking on Sunset (with Micktaylor)
TTITLE8=Oh Pretty Woman (with Mick Taylor)
TTITLE9=No Big Hurry
EXTD=Eagle\nEDGCD246\nwith Eric Clapton, Mick Taylor and Chris Barber
EXTT0=
EXTT1=
EXTT2=
EXTT3=
EXTT4=
EXTT5=
EXTT6=
EXTT7=
EXTT8=
EXTT9=
PLAYORDER=
